<?xml version="1.0" standalone="no"?>
<!DOCTYPE svg PUBLIC "-//W3C//DTD SVG 20010904//EN"
 "http://www.w3.org/TR/2001/REC-SVG-20010904/DTD/svg10.dtd">
<svg version="1.0" xmlns="http://www.w3.org/2000/svg"
 width="609.000000pt" height="1600.000000pt" viewBox="0 0 609.000000 1600.000000"
 preserveAspectRatio="xMidYMid meet">
<metadata>
Created by potrace 1.15, written by Peter Selinger 2001-2017
</metadata>
<g transform="translate(0.000000,1600.000000) scale(0.100000,-0.100000)"
fill="#000000" stroke="none">
<path d="M2996 15992 c-3 -6 -41 -8 -93 -5 l-88 5 40 -21 c41 -22 119 -28 130
-11 3 6 12 10 18 10 7 0 4 -6 -5 -14 -13 -10 -15 -15 -5 -25 9 -9 9 -16 -1
-31 -8 -14 -9 -20 -1 -20 6 0 9 -16 8 -38 -2 -21 0 -42 3 -47 3 -6 6 -26 6
-46 0 -21 3 -46 6 -56 5 -15 0 -23 -18 -31 -21 -9 -24 -9 -19 4 4 12 0 14 -23
8 -16 -4 -30 -11 -32 -15 -2 -5 -13 -4 -24 2 -15 8 -27 8 -45 0 -19 -9 -29 -9
-40 0 -10 9 -17 9 -25 1 -7 -7 -27 -12 -45 -12 -18 0 -43 -6 -54 -12 -17 -10
-23 -10 -26 -1 -4 10 -12 9 -35 -3 -22 -11 -33 -12 -43 -4 -9 8 -15 8 -20 0
-3 -5 -21 -10 -40 -10 -18 0 -35 -4 -37 -10 -1 -5 -19 -12 -38 -14 -45 -6 -92
-17 -105 -25 -5 -3 -21 -6 -35 -6 -14 0 -28 -4 -31 -9 -4 -4 -20 -9 -37 -11
-17 -1 -38 -8 -46 -14 -8 -7 -24 -10 -34 -7 -13 4 -22 1 -26 -9 -3 -8 -13 -15
-21 -15 -27 0 -115 -32 -115 -41 0 -5 -13 -9 -29 -9 -16 0 -34 -7 -41 -15 -7
-8 -23 -15 -36 -15 -13 0 -27 -7 -32 -16 -6 -11 -17 -15 -31 -11 -11 3 -21 1
-21 -3 0 -4 -14 -13 -32 -19 -17 -6 -40 -19 -50 -28 -10 -9 -31 -18 -45 -19
-15 -2 -29 -8 -31 -14 -2 -5 -11 -10 -21 -10 -9 0 -24 -9 -34 -20 -9 -11 -26
-20 -37 -20 -11 0 -23 -7 -26 -15 -4 -8 -11 -15 -18 -15 -6 0 -32 -11 -57 -25
-26 -13 -50 -21 -54 -17 -5 4 -5 2 -2 -4 4 -7 0 -17 -8 -24 -19 -16 -53 6 -35
24 5 5 10 15 10 21 0 5 -6 1 -12 -10 -12 -20 -14 -25 -16 -57 -1 -9 -12 -20
-24 -24 -13 -4 -28 -14 -34 -22 -17 -23 -47 -8 -39 19 5 15 4 19 -4 15 -6 -4
-11 -24 -11 -45 0 -30 -4 -40 -20 -44 -16 -4 -20 0 -20 21 0 21 -2 24 -10 12
-5 -8 -10 -23 -10 -33 0 -40 -100 -103 -100 -64 0 8 -4 7 -10 -3 -5 -8 -7 -23
-4 -32 4 -13 0 -18 -16 -18 -17 0 -20 4 -15 23 6 21 5 21 -7 2 -13 -21 -14
-25 -16 -62 -2 -16 -8 -23 -23 -23 -14 0 -19 5 -16 14 4 10 -2 16 -16 18 -17
2 -21 9 -19 28 2 22 1 23 -9 7 -13 -22 -5 -47 16 -47 28 0 16 -40 -22 -73 -20
-18 -40 -31 -45 -29 -4 1 -8 -3 -8 -9 0 -5 -5 -7 -10 -4 -6 4 -10 -5 -10 -19
0 -28 -17 -35 -26 -11 -7 18 -22 20 -21 3 1 -33 -4 -58 -10 -57 -26 4 -42 -4
-45 -23 -2 -12 -9 -23 -17 -26 -10 -3 -11 2 -6 19 7 23 7 24 -9 4 -8 -11 -16
-27 -16 -36 0 -8 -7 -24 -15 -35 -14 -19 -14 -19 -15 1 0 12 6 27 13 34 10 11
9 13 -3 9 -9 -3 -17 -21 -20 -44 -4 -28 -12 -42 -30 -51 -14 -7 -21 -13 -16
-13 5 0 -5 -13 -22 -29 -16 -16 -33 -39 -37 -51 -5 -17 -10 -19 -21 -9 -11 9
-14 8 -14 -8 0 -11 -9 -28 -20 -38 -11 -10 -22 -26 -25 -36 -4 -11 -10 -19
-15 -19 -6 0 -5 12 1 28 9 26 9 26 -16 -5 -31 -39 -40 -41 -50 -10 -6 19 -8
20 -12 4 -3 -10 4 -26 15 -36 19 -16 20 -19 5 -49 -9 -18 -25 -38 -35 -43 -11
-6 -17 -17 -14 -25 3 -8 -1 -14 -9 -14 -8 0 -17 -11 -21 -25 -3 -13 -14 -27
-23 -30 -10 -3 -23 -21 -28 -40 -8 -25 -8 -33 0 -28 7 4 8 0 4 -11 -4 -10 -7
-21 -7 -24 0 -4 -4 -1 -9 7 -7 11 -10 9 -16 -9 -5 -15 -13 -20 -25 -17 -14 3
-21 -5 -31 -37 -17 -57 -19 -59 -35 -45 -11 9 -14 7 -14 -14 0 -31 -19 -77
-33 -77 -5 0 -6 16 -3 38 11 61 17 72 35 72 20 0 37 52 24 73 -3 5 -1 7 4 4 6
-4 13 0 16 7 4 9 -1 17 -11 19 -15 4 -15 5 1 6 10 0 15 5 12 11 -3 5 12 48 35
95 22 48 40 89 40 92 0 4 7 15 17 25 9 10 13 21 9 25 -4 4 -16 -3 -26 -17 -10
-14 -25 -25 -32 -25 -7 0 -13 -8 -14 -18 -1 -12 -1 -13 3 -2 2 8 8 13 13 10 9
-6 -20 -79 -38 -97 -6 -6 -8 -17 -5 -26 4 -10 2 -13 -6 -8 -6 4 -11 4 -9 -1 1
-4 -6 -26 -16 -48 -9 -22 -28 -74 -42 -115 -13 -41 -29 -84 -34 -95 -6 -11
-14 -40 -18 -65 -4 -25 -13 -45 -19 -45 -21 0 -26 -15 -29 -92 -2 -71 -1 -75
10 -49 9 19 15 24 18 15 3 -8 11 5 17 29 6 23 16 42 21 42 5 0 15 20 21 45 12
48 29 60 29 21 0 -30 -20 -89 -34 -98 -6 -4 -16 -22 -22 -40 -6 -18 -17 -32
-23 -31 -7 2 -11 -12 -11 -35 0 -21 -5 -43 -10 -48 -8 -8 -6 -26 5 -59 11 -31
15 -63 11 -89 -9 -64 -10 -68 -3 -121 10 -74 12 -80 22 -85 6 -3 12 44 16 120
4 82 14 147 27 190 21 66 45 173 45 200 0 8 6 21 14 28 7 8 11 18 7 23 -3 6
-1 15 4 22 6 7 12 23 14 37 1 14 9 31 16 38 7 8 10 18 7 23 -4 5 -2 9 3 9 5 0
13 15 18 33 6 17 15 32 21 32 6 0 15 4 20 9 5 5 2 6 -6 1 -11 -6 -12 -2 -7 21
4 16 11 31 14 34 4 3 18 28 32 55 14 28 30 56 37 63 7 7 13 18 13 23 0 6 12
26 27 46 23 30 28 33 33 17 6 -16 7 -16 12 4 4 12 2 20 -3 16 -16 -10 -9 9 16
42 14 18 25 37 25 43 0 10 14 15 33 12 5 -1 6 2 3 7 -8 13 24 53 36 46 7 -5 8
-2 3 5 -8 14 43 74 56 65 4 -2 11 1 15 7 5 8 3 9 -6 4 -8 -5 -11 -3 -8 6 3 8
12 12 19 11 8 -2 11 0 6 4 -8 8 21 44 36 44 5 0 3 -8 -4 -17 -7 -10 -1 -7 14
6 27 25 36 38 17 26 -26 -16 -6 22 31 58 28 28 43 37 48 29 5 -9 13 -6 27 10
15 18 15 20 1 9 -26 -20 -21 3 8 37 25 30 65 48 65 30 0 -6 6 -5 15 2 9 7 13
22 10 34 -3 12 -2 15 1 8 5 -10 10 -9 21 5 8 10 11 12 7 4 -5 -9 -3 -12 5 -7
6 4 9 11 6 15 -2 5 3 17 11 27 14 17 15 17 10 2 -7 -24 0 -23 27 3 12 12 16
19 10 15 -20 -11 -15 9 7 29 11 10 32 20 47 21 15 2 40 18 57 35 17 18 23 27
14 20 -15 -11 -18 -11 -18 3 0 14 18 21 43 17 4 0 6 2 6 6 -3 21 3 33 17 33 9
0 12 -5 8 -12 -4 -7 -3 -8 5 -4 6 4 8 12 5 18 -5 7 -2 9 7 6 8 -3 30 8 49 25
19 16 28 26 20 22 -10 -6 -9 -2 3 12 18 21 62 40 51 22 -3 -5 -12 -9 -20 -9
-8 0 -14 -4 -14 -10 0 -16 10 -12 49 22 21 19 28 29 16 24 -20 -7 -20 -7 -1
11 13 13 20 15 23 5 6 -15 63 23 63 42 0 7 12 19 28 26 15 8 34 19 42 26 17
12 50 26 50 19 0 -2 -25 -18 -55 -35 -30 -17 -55 -33 -55 -35 0 -7 33 7 60 25
14 9 39 24 55 32 57 28 95 53 95 61 0 5 -4 5 -10 2 -5 -3 -10 -2 -10 3 0 5 14
12 32 14 29 5 30 4 12 -10 -18 -14 -18 -14 -1 -8 10 3 21 6 23 6 2 0 4 9 4 20
0 11 5 20 11 20 6 0 24 9 40 21 24 17 29 18 29 5 0 -9 -8 -16 -17 -16 -16 -1
-66 -30 -50 -30 20 0 117 51 115 60 -3 12 65 53 97 58 l20 4 -20 -16 c-11 -8
-17 -16 -12 -16 13 0 96 45 97 53 0 4 -13 1 -30 -8 -16 -9 -30 -13 -30 -11 0
3 14 13 31 21 21 11 34 13 43 6 18 -15 87 8 84 28 -2 9 9 18 32 25 19 5 37 12
40 16 3 3 19 6 35 7 l30 1 -30 -13 c-16 -8 -23 -14 -15 -14 27 1 55 16 55 30
0 7 9 15 20 16 l20 3 -20 -9 c-28 -13 -4 -13 47 -1 24 6 97 24 163 40 66 16
111 29 101 29 -40 2 -5 13 56 18 34 3 68 8 73 12 6 3 35 4 65 0 l55 -6 -47 -1
c-26 -1 -50 -7 -54 -14 -5 -7 -3 -8 5 -4 7 5 101 11 209 15 l197 8 -144 1
c-79 1 -142 5 -138 8 7 7 278 7 285 -1 3 -2 11 0 19 6 9 8 17 8 26 1 7 -6 44
-13 82 -16 39 -3 79 -8 90 -10 11 -3 25 -5 30 -5 6 -1 3 -6 -5 -12 -12 -8 -8
-10 17 -7 18 3 30 1 27 -4 -3 -4 3 -9 13 -10 32 -2 38 -3 48 -9 6 -4 42 -14
80 -24 39 -10 74 -22 80 -27 5 -4 16 -8 25 -8 8 1 -1 9 -20 20 -19 11 -32 19
-29 20 14 1 78 -30 85 -41 4 -8 3 -9 -4 -5 -7 4 -12 2 -12 -3 0 -15 27 -14 33
2 3 7 6 5 6 -5 1 -10 6 -18 12 -18 5 0 7 5 4 10 -10 17 8 11 35 -11 25 -20 25
-20 1 -9 -16 8 -21 9 -17 1 10 -16 66 -43 66 -32 0 5 -6 12 -12 14 -10 4 -10
6 0 6 8 1 16 -8 19 -18 3 -11 12 -22 20 -26 13 -4 14 -3 3 10 -11 13 -10 14 4
9 9 -3 16 -15 16 -25 0 -10 5 -19 11 -19 5 0 7 6 3 13 -4 7 -3 9 2 4 5 -5 9
-14 9 -19 0 -6 6 -13 13 -16 8 -2 10 2 5 13 -5 16 -4 15 15 -1 24 -20 29 -29
10 -18 -9 5 -9 2 1 -9 15 -18 26 -23 16 -7 -3 6 1 10 9 10 23 0 41 -42 71
-165 40 -161 44 -312 15 -480 -30 -172 -37 -204 -40 -180 -1 11 -10 -9 -21
-45 -10 -36 -17 -69 -16 -75 2 -5 9 14 16 43 8 29 15 51 18 48 3 -2 -4 -38
-15 -78 -11 -40 -37 -134 -57 -208 -51 -186 -61 -215 -75 -215 -15 0 -29 -30
-29 -60 1 -11 6 -3 12 18 7 22 15 36 19 32 4 -4 3 -15 -1 -24 -18 -36 -31 -89
-25 -105 3 -9 1 -16 -6 -16 -6 0 -8 -4 -5 -10 3 -5 1 -10 -4 -10 -6 0 -11 -8
-11 -18 0 -10 -4 -22 -9 -28 -5 -5 -11 -25 -13 -44 -2 -19 -9 -41 -16 -48 -7
-8 -10 -17 -7 -22 3 -4 -2 -11 -11 -14 -12 -5 -15 -16 -12 -40 2 -19 1 -33 -3
-30 -4 2 -10 -3 -13 -12 -3 -8 -10 -13 -15 -9 -6 3 -15 -5 -21 -17 -10 -21
-10 -21 3 -5 14 17 15 16 20 -3 3 -13 0 -23 -7 -26 -8 -3 -12 -17 -10 -35 3
-19 -1 -32 -11 -35 -8 -4 -12 -10 -9 -15 3 -5 1 -9 -5 -9 -6 0 -8 -7 -5 -15 4
-9 -1 -18 -11 -21 -9 -4 -14 -12 -11 -19 2 -7 -3 -23 -11 -36 -9 -12 -11 -19
-5 -15 8 4 10 2 6 -8 -3 -8 -12 -17 -20 -20 -8 -3 -14 -11 -13 -18 4 -19 -11
-59 -20 -53 -5 2 -7 -7 -5 -20 1 -15 -4 -29 -14 -35 -10 -5 -14 -10 -9 -10 4
0 -1 -17 -12 -38 -18 -35 -18 -39 -3 -50 15 -11 13 -11 -8 -6 -14 4 -22 3 -18
-1 4 -4 3 -17 -3 -28 -7 -11 -7 -17 -1 -13 5 3 15 0 21 -8 8 -10 8 -16 -3 -25
-11 -9 -15 -8 -21 6 -5 15 -8 16 -15 3 -10 -19 -12 -30 -4 -29 10 1 33 -35 28
-43 -3 -5 -16 -5 -29 -2 -18 4 -26 0 -36 -18 -11 -21 -11 -22 4 -10 13 11 15
10 10 -8 -3 -13 -11 -19 -19 -16 -19 7 -18 -19 2 -35 14 -12 13 -14 -8 -23
-12 -5 -25 -9 -28 -8 -3 0 -16 -17 -28 -39 -19 -33 -20 -39 -6 -39 21 0 12
-23 -12 -30 -10 -3 -20 -11 -22 -18 -1 -8 1 -11 5 -9 5 3 14 -1 21 -9 12 -13
8 -18 -10 -15 -5 0 -8 -5 -9 -12 0 -6 -4 -4 -8 6 -6 17 -8 16 -19 -7 -9 -21
-9 -24 3 -19 10 3 15 -1 15 -12 0 -9 -4 -13 -10 -10 -9 6 -11 0 -14 -44 -1
-18 -26 -27 -26 -9 0 10 -3 9 -10 -2 -13 -20 -13 -33 0 -25 5 3 10 -1 10 -10
0 -10 -7 -15 -17 -13 -19 3 -20 -2 -8 -39 4 -14 2 -23 -4 -23 -6 0 -11 6 -11
13 0 8 -4 7 -10 -3 -7 -11 -5 -18 6 -27 13 -10 12 -13 -8 -28 -14 -11 -19 -19
-11 -22 19 -7 3 -33 -21 -33 -14 0 -17 -3 -9 -8 10 -6 10 -16 1 -45 -6 -20
-15 -37 -20 -37 -4 0 -8 -8 -8 -18 0 -10 -5 -23 -11 -29 -22 -22 -29 -303 -8
-303 6 0 21 -49 23 -75 1 -5 18 -27 39 -47 40 -41 52 -66 14 -30 -13 12 -27
19 -30 15 -4 -3 -7 1 -7 10 0 9 -5 19 -11 23 -9 5 -10 -1 -5 -22 l6 -29 -15
25 c-8 14 -14 20 -15 14 0 -11 34 -58 81 -113 31 -36 51 -80 45 -99 -3 -10 7
-37 24 -62 16 -25 30 -41 30 -37 0 5 -8 21 -18 35 -26 38 -34 52 -28 52 7 0
66 -90 66 -101 0 -6 -5 -7 -11 -3 -6 3 -3 -8 5 -25 9 -17 19 -31 22 -31 2 0 0
9 -6 20 -6 11 -7 20 -3 20 5 0 14 -14 20 -30 6 -17 8 -28 3 -25 -4 3 -6 -4 -3
-16 5 -16 8 -18 15 -7 7 9 9 7 5 -8 -2 -11 4 -36 14 -55 10 -19 18 -30 19 -26
0 4 -7 21 -15 37 -9 17 -13 30 -11 30 3 0 12 -13 20 -28 8 -16 28 -43 44 -60
16 -17 35 -46 41 -64 7 -18 20 -49 28 -68 9 -19 24 -57 34 -85 l19 -50 -21 25
-21 25 17 -30 c10 -16 48 -59 85 -95 36 -36 44 -45 16 -20 l-51 45 45 -48 c44
-48 120 -107 137 -107 4 0 1 5 -7 10 -12 8 -11 10 8 10 12 0 22 -6 22 -14 0
-8 24 -24 58 -36 72 -28 122 -36 122 -22 0 6 7 9 16 5 11 -4 12 -8 4 -13 -12
-7 111 -36 190 -45 25 -2 0 5 -55 16 -55 11 -104 24 -108 28 -5 5 18 3 50 -4
112 -24 179 -35 214 -36 31 -1 32 -2 9 -9 -24 -8 -23 -8 8 -9 18 -1 31 3 28 8
-4 5 3 7 15 4 15 -4 17 -8 8 -14 -15 -9 73 -24 93 -16 7 3 -3 6 -22 8 l-35 2
40 6 c22 3 42 3 46 -1 5 -7 155 -28 244 -34 79 -5 82 -6 50 -14 -25 -6 -26 -8
-7 -9 13 0 93 -12 179 -26 85 -14 160 -24 167 -22 6 3 -17 8 -52 12 -34 4 -64
11 -67 15 -2 3 26 2 63 -3 37 -4 70 -14 74 -20 5 -8 8 -8 8 -1 0 8 17 8 58 2
57 -9 99 -29 45 -22 -48 7 57 -25 137 -41 120 -24 138 -27 115 -16 -20 10 -20
10 1 10 11 1 29 -6 40 -14 19 -15 19 -15 -1 -9 -15 4 -13 1 5 -10 14 -8 32
-15 40 -15 10 0 8 3 -5 9 -20 8 -20 9 1 9 28 1 84 -19 84 -30 0 -5 -4 -9 -10
-9 -5 0 -38 -29 -73 -65 -35 -36 -69 -65 -76 -65 -6 0 -11 -4 -11 -8 0 -5 -32
-33 -70 -63 -105 -81 -110 -85 -102 -94 4 -5 2 -5 -4 -2 -7 4 -45 -19 -85 -51
-41 -31 -100 -75 -133 -96 -32 -22 -62 -50 -66 -62 -5 -11 -16 -24 -25 -28
-26 -10 -29 -7 -14 12 12 15 12 15 -8 -1 -12 -11 -19 -26 -16 -37 3 -12 -3
-22 -16 -29 -12 -7 -21 -8 -21 -2 0 5 -6 11 -14 14 -8 3 -13 -1 -12 -10 1 -20
-55 -63 -61 -45 -3 6 -10 12 -16 12 -7 -1 -1 -9 11 -20 l24 -20 -27 -10 c-33
-13 -45 -13 -25 0 11 7 11 10 2 10 -7 0 -10 5 -7 10 3 6 2 10 -4 10 -5 0 -13
-4 -16 -10 -3 -5 -2 -10 4 -10 16 0 3 -24 -22 -40 -12 -8 -42 -17 -67 -20 -38
-4 -45 -8 -42 -26 3 -25 -40 -53 -60 -37 -9 8 -26 2 -61 -23 -26 -18 -48 -37
-47 -41 0 -4 -6 -8 -13 -8 -7 0 -36 -15 -65 -34 -49 -31 -62 -43 -44 -40 21 4
24 -3 6 -16 -22 -17 -38 -20 -29 -5 13 21 -18 8 -45 -19 -16 -16 -31 -27 -33
-25 -6 6 -82 -57 -80 -66 1 -5 -4 -11 -13 -14 -10 -4 -13 -2 -8 6 4 6 -13 -4
-38 -23 -25 -19 -44 -37 -41 -41 2 -5 -2 -8 -10 -8 -19 0 -67 -39 -49 -40 7 0
11 -4 7 -10 -3 -5 -12 -7 -20 -3 -10 3 -15 -1 -15 -12 0 -9 -4 -14 -9 -10 -5
3 -22 -6 -37 -20 -20 -18 -30 -22 -40 -15 -9 8 -14 7 -20 -1 -4 -7 -3 -9 4 -5
20 12 22 -11 3 -28 -18 -17 -20 -17 -24 1 -4 15 -5 16 -6 1 0 -9 3 -19 8 -22
10 -6 -55 -76 -70 -76 -5 0 -8 -3 -7 -7 1 -5 -3 -18 -10 -31 -7 -12 -10 -27
-6 -33 4 -8 -1 -9 -17 -4 -23 7 -23 7 -4 -8 16 -13 18 -18 7 -29 -11 -11 -12
-10 -7 7 3 11 -5 -1 -19 -26 -23 -42 -24 -52 -17 -125 4 -43 4 -92 -1 -109 -4
-16 -7 -66 -6 -110 1 -62 3 -68 5 -27 4 51 15 67 27 36 3 -9 3 -21 -1 -26 -3
-7 -1 -8 5 -4 7 4 14 -3 18 -18 3 -14 12 -30 19 -36 7 -6 11 -18 8 -28 -2 -9
5 -27 16 -39 12 -12 21 -27 21 -32 0 -6 7 -14 16 -19 21 -12 14 -48 -9 -44
-10 2 -17 -4 -17 -13 0 -8 6 -15 14 -15 13 0 31 -58 21 -68 -3 -3 -12 3 -20
14 -14 18 -14 18 -15 -4 0 -13 -4 -21 -8 -18 -16 10 -21 -119 -5 -135 8 -8 8
2 0 35 -8 37 -7 49 7 70 19 30 33 33 53 9 8 -10 12 -12 8 -5 -4 7 1 12 14 12
28 0 36 -17 11 -25 -16 -5 -20 -15 -20 -46 0 -22 -5 -50 -12 -62 -15 -28 -17
-34 -23 -77 -4 -34 -4 -34 5 -5 5 17 18 55 29 85 11 30 20 63 21 73 0 18 30
25 30 6 0 -5 4 -8 9 -4 5 3 13 -4 16 -16 4 -11 9 -18 12 -15 4 3 12 1 20 -5 8
-7 13 -8 13 -1 0 5 -7 12 -15 16 -8 3 -15 16 -15 30 0 19 -4 23 -20 19 -16 -4
-20 0 -20 18 0 13 -9 30 -20 37 -11 7 -20 19 -20 27 0 8 -4 15 -10 15 -5 0
-10 15 -10 33 l0 32 32 -48 31 -48 28 27 c16 15 29 24 29 20 0 -5 38 28 85 72
47 45 98 89 114 98 16 10 32 26 34 36 3 11 11 16 19 13 17 -7 71 33 63 45 -3
5 0 12 6 16 8 4 9 3 5 -4 -4 -7 -5 -12 -1 -12 9 0 85 50 85 56 0 3 -5 2 -12
-2 -7 -4 -8 -3 -4 4 4 6 14 8 23 5 10 -4 14 -2 10 4 -4 6 1 10 11 9 9 0 16 5
14 12 -1 8 2 11 7 7 13 -7 63 24 56 35 -3 5 0 12 6 16 8 4 9 3 5 -4 -16 -26
14 -10 39 21 15 17 24 26 20 18 -5 -9 -3 -12 6 -9 8 3 14 10 14 15 0 6 4 15 9
20 5 5 6 3 2 -4 -4 -7 -3 -13 1 -13 5 0 13 10 18 23 6 13 17 21 28 19 21 -4
49 16 42 28 -3 4 3 7 12 6 10 0 18 6 18 14 0 9 8 14 18 12 20 -3 49 16 42 27
-2 4 2 8 9 8 21 0 87 44 81 54 -4 5 0 6 8 3 8 -3 18 0 23 7 5 8 3 10 -7 4 -12
-8 -12 -6 0 8 15 18 26 23 16 7 -11 -17 12 -11 36 11 13 11 18 17 10 13 -9 -5
-12 -3 -7 5 4 6 11 9 15 6 11 -6 100 52 108 71 4 11 8 12 13 4 4 -7 14 -4 31
10 13 12 18 18 10 14 -9 -5 -12 -3 -7 5 4 6 11 9 15 6 8 -5 101 50 101 60 0 4
-5 3 -12 -1 -7 -5 -8 -3 -4 5 5 7 10 10 13 7 7 -7 60 20 69 35 5 8 3 9 -6 4
-9 -5 -11 -4 -6 4 4 6 11 9 16 6 14 -9 61 18 56 31 -3 8 0 16 6 20 7 4 8 3 4
-4 -13 -21 10 -13 30 10 19 22 19 23 -1 8 -18 -14 -19 -14 -7 2 8 9 19 15 26
12 6 -2 23 8 36 23 18 20 19 23 5 13 -18 -14 -19 -14 -7 2 8 9 19 15 26 12 14
-5 95 55 95 70 1 6 -14 -3 -31 -20 l-33 -29 29 32 c16 18 32 31 35 30 17 -4
65 37 194 166 130 129 249 262 220 244 -6 -4 -3 15 9 45 11 29 22 61 25 71 3
10 9 14 12 9 3 -6 8 26 9 70 3 79 -14 182 -29 172 -4 -2 -5 4 -2 14 2 10 -7
63 -21 118 -14 54 -42 159 -61 233 -19 74 -32 146 -30 160 4 17 3 20 -2 9 -6
-13 -12 -15 -23 -8 -13 9 -13 11 0 20 8 5 11 10 5 10 -5 0 -11 24 -12 54 0 29
-8 67 -17 84 -21 41 -20 56 1 17 9 -16 23 -57 30 -90 l13 -60 -5 52 c-6 59
-49 162 -59 141 -3 -7 -4 -3 -2 9 2 13 -3 28 -13 35 -15 12 -15 11 -1 -7 14
-19 14 -19 -3 -6 -9 7 -16 19 -15 25 2 7 -9 27 -24 45 -16 18 -28 29 -28 25 0
-4 12 -22 27 -38 15 -17 3 -7 -27 22 -31 28 -61 52 -68 52 -11 0 -16 13 -13
32 1 9 -49 48 -61 48 -5 0 -6 -6 -2 -12 4 -7 -6 1 -22 18 -16 17 -65 48 -108
68 -79 36 -123 48 -76 21 l25 -15 -27 4 c-15 3 -35 10 -45 16 -16 11 -17 11 0
6 9 -3 17 -2 17 3 0 4 -17 13 -37 19 -36 10 -37 10 -18 -5 l20 -16 -20 8 c-11
5 -30 8 -42 8 -13 -1 -23 3 -23 9 0 5 -4 6 -10 3 -5 -3 -10 -3 -10 2 0 4 -12
9 -26 9 -32 2 -43 12 -24 24 12 8 10 10 -8 10 -15 0 -21 -4 -16 -12 5 -8 -2
-9 -27 -3 -19 4 -42 8 -51 8 -10 1 -18 9 -18 19 0 11 -7 18 -17 17 -11 0 -13
-3 -5 -6 6 -2 10 -9 6 -14 -10 -16 -24 -10 -24 11 0 11 -5 20 -11 20 -5 0 -7
-5 -4 -10 9 -14 -23 -24 -38 -12 -6 6 -15 11 -19 11 -5 1 -9 1 -10 2 -4 1
-120 9 -142 9 -10 1 -20 10 -23 21 -3 10 -10 19 -15 19 -5 0 -7 -4 -3 -9 11
-18 -15 -22 -77 -11 -97 18 -196 30 -273 34 -38 2 -94 9 -124 15 -29 6 -71 11
-93 11 -22 0 -37 3 -35 8 3 4 -16 7 -41 6 -26 0 -56 2 -67 6 -11 4 -31 3 -45
-1 -14 -4 -19 -7 -11 -8 8 -1 12 -3 10 -6 -3 -2 -15 -2 -27 2 -20 5 -21 7 -6
17 13 10 9 12 -22 9 -33 -2 -35 -1 -14 6 14 5 21 10 15 10 -5 1 -4 5 4 10 18
12 -169 46 -204 37 -28 -7 -41 -5 -38 6 2 5 -4 8 -13 8 -9 0 -12 -5 -8 -11 4
-7 1 -10 -7 -7 -8 3 -13 15 -12 27 3 25 65 172 71 167 2 -2 -11 -36 -28 -76
-17 -39 -29 -77 -26 -83 3 -8 5 -8 5 1 2 23 75 190 137 313 13 26 24 51 24 55
-1 5 -10 -8 -21 -28 -28 -54 -32 -47 -6 11 12 27 25 44 28 39 3 -5 9 -1 12 9
3 10 13 34 22 53 13 30 13 32 0 16 -8 -11 -15 -25 -15 -32 0 -7 -5 -16 -11
-19 -5 -4 -3 10 7 32 9 21 19 47 22 57 5 20 5 20 14 0 7 -16 7 -16 6 6 -2 28
11 74 19 67 2 -3 0 -15 -7 -26 -6 -12 -8 -21 -5 -21 7 0 55 105 55 121 0 6 13
35 29 63 27 48 47 106 37 106 -3 0 -10 -17 -15 -38 -6 -21 -18 -46 -26 -57
-14 -18 -14 -17 -1 15 8 19 28 70 43 112 15 43 33 78 39 78 11 0 64 107 64
130 0 6 14 45 30 87 17 41 30 84 29 96 0 13 -6 3 -14 -23 -27 -89 -74 -220
-90 -250 -26 -50 -26 -34 0 23 14 28 25 58 25 65 0 7 13 48 29 90 16 42 50
144 76 225 26 81 49 146 51 144 2 -2 -3 -23 -11 -47 -8 -24 -14 -45 -12 -47 9
-9 73 204 104 342 59 274 69 330 43 246 -10 -35 -27 -109 -36 -165 -9 -56 -27
-134 -40 -174 -13 -40 -24 -83 -24 -95 0 -12 -5 -29 -10 -37 -15 -22 -3 40 25
135 13 44 31 123 40 175 8 52 22 118 30 145 21 74 37 169 45 270 4 50 13 153
20 230 14 161 7 297 -21 440 -11 55 -23 114 -26 130 -2 17 -18 70 -34 119 -17
49 -28 94 -25 101 2 6 0 18 -6 26 -8 11 -9 10 -4 -4 10 -31 -11 -9 -23 23 -5
17 -6 28 -2 25 5 -3 7 4 4 15 -3 11 -9 23 -14 26 -5 3 -6 -3 -3 -13 5 -17 5
-17 -6 0 -6 9 -9 21 -5 26 3 5 0 13 -6 17 -8 5 -10 2 -5 -7 4 -8 -2 -3 -13 11
-11 14 -21 29 -21 34 0 6 7 1 15 -10 14 -16 14 -15 0 14 -9 18 -21 30 -27 26
-5 -4 -14 0 -19 7 -14 23 -10 32 9 18 16 -13 8 0 -27 41 -2 3 -1 -4 3 -14 7
-19 6 -19 -14 -1 -22 19 -28 41 -8 29 7 -4 2 7 -11 24 -27 39 -38 42 -14 5
l18 -28 -32 25 c-28 22 -48 60 -23 45 6 -4 7 1 3 11 -4 10 -8 13 -10 7 -10
-30 -92 46 -93 85 0 16 4 21 13 16 6 -4 -7 13 -30 37 -24 25 -53 45 -65 46
-27 2 -63 44 -65 74 -2 18 0 19 15 7 28 -22 -63 84 -109 127 -24 22 -37 33
-31 23 10 -13 10 -18 1 -24 -9 -5 -6 -10 9 -15 12 -5 22 -15 22 -23 0 -11 -11
-8 -44 14 -43 30 -70 65 -40 53 7 -3 14 0 14 7 0 6 6 8 13 4 6 -4 1 5 -12 19
-14 15 -27 27 -29 27 -3 0 3 -9 13 -20 10 -11 14 -20 8 -20 -15 0 -43 34 -43
52 0 9 -10 18 -22 21 -22 6 -22 5 -4 -8 11 -8 16 -18 12 -22 -3 -4 -17 3 -29
15 -12 13 -31 30 -42 38 -19 15 -19 15 3 4 31 -15 28 -8 -9 19 -22 16 -33 20
-39 12 -10 -17 -113 36 -106 54 5 14 -50 33 -61 21 -4 -3 3 -6 15 -6 11 0 24
-5 27 -10 7 -12 -37 -4 -66 11 -9 5 -19 5 -23 2 -3 -3 -6 -1 -6 6 0 7 -4 9
-10 6 -5 -3 -10 -1 -10 5 0 6 -4 9 -8 6 -4 -3 -26 0 -48 5 -21 6 -47 10 -56
10 -10 0 -18 5 -18 10 0 6 -4 8 -9 5 -13 -9 -165 15 -172 27 -4 6 -9 5 -13 -1z
m71 -40 c-15 -3 -16 -6 -5 -19 11 -14 21 -112 20 -205 0 -21 4 -38 9 -38 5 0
12 0 15 0 10 0 9 114 -1 130 -5 8 -10 41 -11 72 -1 53 0 57 17 47 13 -6 19 -6
19 1 0 5 5 10 11 10 5 0 8 -4 5 -8 -3 -5 -8 -23 -11 -40 -5 -29 -3 -32 21 -32
23 0 25 3 19 31 -6 27 -4 30 12 27 13 -3 17 -12 16 -33 -2 -19 6 -38 20 -53
17 -18 19 -25 8 -31 -10 -7 -11 -19 -3 -55 5 -26 8 -55 5 -64 -3 -13 2 -18 18
-19 21 -2 21 0 16 95 -3 53 -8 107 -12 120 -6 19 -4 22 16 21 15 -1 18 -3 8
-6 -11 -3 -15 -11 -12 -24 5 -16 8 -18 14 -7 6 9 9 6 9 -12 0 -43 4 -70 10
-70 5 0 3 -120 -2 -125 -2 -2 -21 -4 -43 -6 -27 -2 -39 1 -37 9 3 14 -44 6
-67 -12 -12 -9 -13 -8 -8 7 7 20 4 20 -41 7 -44 -12 -71 4 -68 39 1 14 -1 36
-6 49 -6 16 -5 21 3 16 8 -5 10 3 6 27 -3 19 -9 60 -13 92 -5 49 -4 57 10 57
9 0 16 4 16 10 0 5 8 6 18 2 16 -6 16 -7 -1 -10z m553 -3094 c0 -4 7 -8 15 -8
8 0 15 -4 15 -10 0 -5 10 -10 23 -10 13 0 27 -4 33 -8 5 -4 36 -16 69 -26 33
-10 71 -22 85 -27 46 -16 184 -49 202 -49 10 0 18 5 18 10 0 16 37 12 44 -5 3
-8 -1 -21 -9 -29 -18 -18 -19 -43 -2 -49 7 -4 3 -8 -11 -13 -17 -5 -21 -11
-16 -26 5 -15 3 -19 -7 -13 -11 6 -11 5 -2 -5 15 -17 -15 -48 -42 -42 -15 3
-14 -1 8 -15 33 -22 34 -30 2 -45 -19 -8 -24 -16 -19 -31 4 -12 -2 -26 -17
-40 -14 -13 -18 -22 -11 -25 7 -2 12 -10 12 -19 0 -8 -6 -13 -12 -11 -21 7
-39 -19 -32 -47 5 -19 1 -30 -12 -40 -11 -8 -14 -14 -6 -15 22 0 13 -20 -15
-31 -16 -7 -23 -13 -15 -16 9 -3 4 -20 -18 -58 -16 -29 -30 -56 -30 -61 1 -5
7 2 15 16 8 14 14 21 15 15 0 -5 -9 -25 -20 -43 -11 -18 -20 -39 -20 -47 0 -8
-4 -15 -10 -15 -5 0 -10 -9 -10 -20 0 -11 -4 -20 -8 -20 -4 0 -8 -10 -9 -21
-1 -12 -9 -29 -17 -38 -8 -9 -18 -29 -22 -46 -4 -16 -10 -32 -13 -35 -11 -9
-42 -70 -36 -70 7 0 -26 -62 -37 -71 -5 -3 -9 -17 -10 -32 -1 -16 -7 -26 -14
-23 -7 3 -14 -13 -18 -44 -7 -54 -17 -56 -62 -15 -24 22 -24 23 -3 28 30 8 20
36 -21 58 -50 26 -64 39 -52 51 7 7 19 4 38 -11 15 -11 33 -21 40 -21 7 0 17
-8 23 -17 12 -22 22 -14 15 13 -3 11 -18 25 -33 32 -15 7 -28 18 -28 26 0 12
6 12 40 0 22 -8 42 -12 45 -9 3 3 0 5 -6 5 -7 0 -12 5 -12 11 0 5 5 7 10 4 17
-10 38 14 33 35 -7 25 -23 26 -23 1 0 -28 -30 -35 -54 -12 -12 10 -29 17 -38
16 -10 -2 -16 2 -15 8 1 7 -4 11 -10 10 -7 -2 -13 4 -13 12 0 8 -5 15 -12 15
-6 0 -8 3 -5 6 7 7 69 -15 77 -27 3 -4 18 -11 34 -15 l28 -7 -17 26 c-9 14
-22 24 -29 21 -19 -7 -41 23 -29 39 6 6 13 20 17 31 5 14 2 17 -9 12 -9 -3
-15 0 -15 9 0 8 9 15 20 15 11 0 20 6 20 14 0 21 -21 31 -30 15 -12 -18 -41 7
-33 28 5 13 2 15 -12 9 -11 -4 -16 -4 -12 0 4 4 -1 13 -11 20 -14 11 -15 13
-1 14 8 0 20 -5 25 -10 6 -6 21 -13 34 -15 13 -2 26 -8 29 -13 3 -5 14 -9 24
-9 16 0 21 9 18 33 -2 18 28 25 51 13 29 -15 35 -2 10 21 -12 12 -22 16 -22
10 0 -5 -5 -10 -11 -10 -6 0 -9 7 -5 15 3 8 1 15 -4 15 -6 0 -10 5 -10 10 0 6
6 10 14 10 7 0 19 7 26 15 11 14 10 14 -16 5 -16 -6 -37 -19 -47 -27 -16 -15
-18 -15 -31 2 -7 10 -18 15 -24 11 -7 -4 -12 -2 -12 4 0 6 10 15 23 20 12 5
17 9 11 9 -6 1 -14 15 -18 32 -5 27 -8 30 -21 19 -12 -10 -15 -9 -15 6 0 16
-2 17 -10 4 -7 -11 -10 -11 -10 -2 0 7 -4 10 -10 7 -5 -3 -15 -3 -20 0 -15 9
7 45 24 39 8 -3 17 -1 20 4 3 6 -6 13 -19 16 -14 4 -23 11 -20 16 4 6 -1 13
-9 16 -9 3 -16 13 -16 22 0 13 2 13 18 -1 13 -12 22 -13 36 -5 14 8 17 7 12
-1 -4 -6 -2 -19 3 -28 6 -11 11 -13 11 -5 0 9 5 10 18 3 13 -7 23 -6 31 2 10
9 11 8 6 -5 -5 -13 0 -19 19 -24 14 -3 26 -10 26 -15 0 -5 9 -9 21 -9 11 0 18
-4 15 -9 -7 -11 44 -5 56 7 14 14 -2 42 -26 43 -66 2 -96 18 -71 39 12 10 18
10 30 0 8 -6 18 -9 23 -6 6 3 15 -1 22 -9 8 -10 24 -13 46 -11 26 3 32 1 27
-11 -4 -10 0 -14 13 -12 23 3 56 -10 69 -28 8 -10 10 -7 11 11 2 24 -19 41
-36 31 -4 -3 -10 2 -14 10 -3 8 -12 15 -19 15 -8 0 -32 8 -53 17 -22 9 -43 18
-49 19 -29 7 -84 35 -87 45 -3 9 -9 9 -24 1 -23 -12 -74 -4 -54 8 20 13 0 32
-29 28 -21 -3 -27 0 -28 15 -2 16 3 18 25 12 15 -4 29 -10 32 -13 3 -4 14 -9
25 -10 11 -2 22 -8 23 -13 2 -5 12 -9 22 -9 10 0 25 -6 32 -14 14 -14 78 -27
78 -16 0 16 -41 42 -59 37 -15 -3 -21 1 -23 16 -2 15 -13 23 -35 28 -18 3 -40
12 -48 19 -8 7 -22 10 -30 6 -8 -3 -15 -1 -15 4 0 15 20 22 33 12 7 -5 28 -13
47 -17 19 -4 45 -13 57 -21 12 -8 31 -14 42 -14 11 0 23 -5 27 -11 3 -6 17 -8
33 -4 14 4 22 3 18 -1 -4 -4 18 -16 50 -27 84 -27 105 -30 114 -15 14 21 11
25 -23 26 -17 0 -34 6 -38 12 -4 7 -21 13 -37 14 -17 1 -37 7 -46 14 -8 7 -19
12 -23 11 -12 -3 -44 11 -76 33 -14 10 -33 15 -42 12 -9 -3 -16 -1 -16 5 0 14
21 14 57 0 15 -6 36 -12 46 -14 9 -2 50 -15 90 -28 117 -40 134 -42 148 -15 7
13 14 34 15 48 1 26 -23 37 -206 96 -25 8 -58 22 -73 30 -16 7 -36 14 -46 14
-9 0 -27 9 -39 20 -12 11 -32 20 -46 20 -13 0 -27 7 -30 16 -4 10 -12 14 -24
9 -11 -4 -14 -3 -7 4 14 14 91 -5 115 -29 11 -11 29 -20 39 -20 11 0 23 -5 26
-10 4 -6 15 -10 24 -8 16 3 40 -6 94 -34 11 -5 49 -16 85 -23 37 -8 79 -17 95
-21 18 -4 27 -2 27 6 0 7 8 19 18 27 15 12 14 13 -15 9 -37 -5 -103 12 -103
27 0 5 -7 7 -15 3 -8 -3 -36 4 -61 14 -25 11 -54 20 -65 20 -10 0 -33 9 -51
20 -18 11 -44 20 -57 20 -23 0 -97 47 -88 56 4 5 26 -3 106 -38 24 -11 49 -17
56 -14 7 2 17 0 23 -6 14 -14 75 -37 117 -44 17 -3 35 -10 40 -14 6 -5 20 -9
30 -8 11 1 34 -2 51 -6 23 -5 34 -2 47 12 15 17 15 18 -13 29 -20 7 -30 8 -30
1 0 -6 -8 -7 -17 -3 -10 4 -34 11 -53 17 -49 13 -52 13 -80 22 -27 8 -92 38
-100 46 -3 3 -14 5 -25 5 -11 0 -28 7 -38 16 -9 8 -27 15 -40 14 -12 -1 -28 6
-35 16 -7 10 -19 16 -27 13 -8 -3 -24 2 -37 10 -23 17 -23 17 15 14 20 -1 37
-6 37 -10z m477 -1478 c1 0 7 -17 13 -37 8 -27 8 -46 1 -65 -9 -25 -16 -28
-54 -28 -48 0 -70 17 -81 63 -13 54 31 92 89 76 16 -5 31 -9 32 -9z m533 -28
c-14 -7 -18 -20 -24 -107 -3 -38 -18 -56 -30 -36 -4 6 -18 3 -38 -6 -28 -14
-33 -14 -57 0 -53 31 -53 105 -1 132 32 17 76 7 86 -19 10 -25 33 -27 32 -3
-2 40 2 47 25 46 16 0 18 -2 7 -7z m389 -128 c16 -36 13 -65 -8 -94 -15 -19
-22 -22 -33 -12 -8 6 -18 9 -21 5 -4 -3 -18 0 -32 7 -20 11 -25 21 -25 54 0
53 8 64 50 68 47 5 55 1 69 -28z m-721 -49 c17 -14 35 -25 42 -25 7 0 10 -7 6
-16 -3 -9 -6 -29 -6 -45 0 -22 -5 -29 -19 -29 -11 0 -23 -4 -26 -10 -11 -17
-64 -11 -85 10 -13 13 -20 33 -20 60 0 35 5 43 33 60 40 25 39 25 75 -5z m309
-69 c-1 -62 -5 -82 -15 -79 -9 4 -10 -1 -2 -22 13 -33 13 -75 1 -75 -5 0 -12
-14 -16 -31 -4 -19 -16 -34 -30 -39 -13 -5 -26 -14 -30 -19 -20 -33 -115 23
-115 67 0 30 40 71 76 78 27 5 34 2 53 -25 35 -49 49 -41 45 26 -1 31 0 62 4
68 4 5 8 30 8 55 3 74 4 80 14 80 6 0 9 -33 7 -84z m212 -18 c9 3 11 -10 9
-46 -2 -38 -6 -48 -15 -40 -9 7 -21 4 -42 -11 -25 -18 -30 -19 -41 -6 -7 8
-18 15 -24 15 -23 0 -38 19 -43 53 -5 41 17 67 65 78 21 5 33 0 53 -21 14 -14
31 -24 38 -22z m167 -205 c22 -30 17 -81 -12 -110 -19 -19 -28 -23 -37 -14 -6
6 -21 11 -34 11 -33 0 -48 43 -33 93 10 36 12 37 57 37 32 0 50 -5 59 -17z"/>
<path d="M3767 8450 c-3 -11 -1 -20 5 -20 5 0 8 -37 6 -92 -1 -51 1 -99 5
-105 5 -9 2 -13 -9 -13 -13 0 -15 7 -12 35 2 19 0 35 -4 35 -4 0 -8 -32 -8
-72 0 -56 3 -69 12 -60 7 7 15 12 19 12 15 0 26 -57 20 -100 -5 -34 -11 -45
-24 -44 -14 2 -17 -6 -16 -40 l2 -41 7 35 c4 19 8 27 9 18 3 -40 19 -13 30 51
12 64 11 72 -9 110 -18 37 -19 42 -5 47 9 4 19 4 22 0 9 -8 33 14 33 30 0 20
-18 17 -23 -3 -4 -15 -6 -15 -12 4 -4 13 -12 20 -18 16 -6 -3 -7 -1 -3 5 4 7
17 12 29 12 16 0 18 3 9 12 -17 17 -15 29 3 22 10 -4 15 0 15 15 0 12 -5 21
-11 21 -5 0 -7 4 -4 10 3 5 -6 30 -20 55 -14 26 -21 44 -15 40 6 -3 7 0 4 9
-9 22 -31 20 -37 -4z"/>
<path d="M4586 7665 c7 -18 -7 -20 -24 -3 -9 9 -12 7 -12 -10 0 -12 -5 -22
-11 -22 -7 0 -8 -7 -4 -17 4 -10 8 -25 9 -33 3 -18 28 -20 34 -2 2 6 -1 12 -7
12 -17 0 -13 15 12 43 22 26 22 26 46 6 13 -10 19 -19 15 -19 -5 0 -2 -5 6
-10 9 -6 10 -10 3 -10 -6 0 -15 5 -18 10 -9 15 -25 12 -25 -5 0 -8 -4 -15 -9
-15 -5 0 -8 -8 -7 -17 0 -10 -8 -22 -20 -27 -11 -5 -40 -46 -64 -90 -24 -45
-47 -83 -50 -86 -4 -3 -10 -15 -14 -27 -4 -13 -12 -23 -17 -23 -5 0 -9 -5 -9
-10 0 -6 -16 -36 -35 -66 -19 -30 -35 -58 -35 -62 0 -4 -16 -29 -35 -56 -19
-27 -32 -53 -29 -58 6 -10 24 -1 24 12 0 7 40 70 149 234 14 21 30 46 36 56
61 108 102 170 113 170 16 0 15 -20 -4 -61 -22 -45 -76 -132 -87 -140 -13 -9
1 -29 19 -29 17 0 46 25 38 33 -7 7 75 137 86 137 21 0 19 -23 -6 -67 -14 -27
-32 -55 -40 -64 -8 -8 -14 -20 -14 -26 0 -6 -7 -16 -15 -23 -8 -7 -15 -27 -15
-45 0 -65 -60 -105 -106 -70 -23 17 -34 19 -34 5 0 -6 -30 -56 -66 -111 -44
-67 -71 -99 -80 -95 -22 9 -16 -12 7 -25 24 -12 30 -7 55 49 8 17 18 32 22 32
4 0 24 27 45 59 21 33 45 62 53 65 28 11 25 -22 -7 -75 -30 -50 -47 -73 -96
-136 -10 -13 -26 -23 -35 -23 -9 0 -23 -7 -32 -15 -10 -11 -24 -13 -41 -9 -22
5 -26 11 -22 30 5 27 -10 33 -20 9 -5 -14 -8 -14 -24 1 -21 19 -25 39 -6 31 7
-3 13 5 13 19 2 20 0 22 -13 9 -8 -9 -20 -12 -26 -8 -7 4 -8 0 -4 -13 7 -19 7
-19 -8 0 -8 11 -17 17 -20 14 -9 -8 75 -79 85 -73 6 4 10 0 10 -8 0 -23 43
-57 60 -47 8 5 15 15 15 21 0 14 50 30 68 23 7 -2 23 14 37 36 14 22 28 40 32
40 5 0 8 6 8 14 0 7 7 19 15 26 9 7 35 42 58 77 22 34 45 63 49 63 4 0 8 7 8
15 0 8 5 15 11 15 6 0 8 7 5 16 -3 8 -2 13 3 10 5 -3 13 6 19 22 5 15 19 38
31 51 11 13 21 30 21 38 0 7 4 13 8 13 5 0 19 20 32 45 13 25 27 45 32 45 13
0 3 -42 -14 -54 -8 -6 -23 -30 -33 -53 -10 -24 -22 -43 -25 -43 -3 0 -12 -17
-19 -37 -8 -21 -20 -45 -27 -53 -7 -9 -25 -38 -39 -65 -15 -28 -40 -67 -56
-87 -16 -20 -29 -42 -29 -47 0 -6 -3 -11 -8 -11 -4 0 -22 -25 -40 -55 -22 -37
-37 -52 -47 -48 -8 3 -15 1 -15 -5 0 -5 9 -12 20 -15 27 -7 25 -20 -7 -35 -20
-9 -30 -9 -37 -1 -8 8 -8 13 0 16 13 4 7 43 -7 43 -5 0 -9 -4 -9 -10 0 -5 -6
-10 -14 -10 -8 0 -18 -5 -21 -10 -4 -6 -1 -9 6 -8 7 2 15 -6 17 -17 4 -18 3
-18 -14 -5 -17 14 -18 14 -6 -2 8 -9 19 -15 26 -12 7 3 21 -6 32 -18 l19 -23
-22 19 c-13 11 -23 15 -23 10 1 -13 50 -47 50 -34 0 5 9 10 20 10 11 0 20 -6
20 -13 0 -7 16 -28 35 -47 19 -19 35 -40 35 -47 0 -7 5 -13 11 -13 5 0 7 5 3
12 -4 7 -3 8 5 4 6 -4 9 -11 6 -16 -3 -5 5 -14 17 -21 22 -12 22 -11 8 7 -14
18 -14 18 3 5 9 -7 17 -19 17 -25 0 -14 38 -38 50 -31 5 3 12 0 16 -6 5 -8 2
-10 -7 -5 -8 4 -3 -2 11 -13 14 -12 31 -26 38 -31 6 -6 12 -7 12 -2 0 5 -10
17 -22 26 l-23 17 25 -12 c26 -13 50 -34 50 -44 0 -3 -6 -3 -12 0 -7 4 2 -8
21 -25 21 -20 36 -28 40 -21 5 8 13 6 27 -5 10 -8 13 -13 7 -9 -25 12 -12 -4
20 -26 l32 -23 -20 25 -20 24 23 -19 c12 -11 22 -23 22 -28 0 -12 52 -57 66
-58 5 0 23 -13 39 -30 30 -32 57 -42 34 -13 -10 12 -2 10 29 -7 23 -13 42 -27
42 -31 0 -4 7 -14 15 -22 12 -13 12 -15 -5 -20 -13 -3 -17 -1 -13 9 6 16 -18
18 -79 8 -25 -4 -38 -12 -38 -22 0 -14 -1 -14 -12 0 -11 14 -21 15 -65 6 -29
-6 -50 -14 -47 -19 3 -5 -2 -6 -10 -3 -9 3 -46 1 -83 -5 -37 -6 -95 -13 -128
-16 -33 -3 -62 -10 -63 -15 -2 -6 -8 -7 -14 -4 -12 7 -161 -16 -153 -24 3 -3
36 1 75 8 39 7 73 10 77 7 12 -13 -6 -19 -65 -23 -60 -3 -117 -25 -104 -39 4
-4 -3 -3 -15 4 -28 14 -54 14 -50 -1 1 -6 -7 -13 -18 -15 -15 -3 -17 -2 -6 5
7 5 9 12 5 15 -12 7 -54 -10 -54 -22 0 -10 -21 -8 -53 4 -12 5 -17 3 -15 -6 2
-7 -6 -14 -17 -16 -17 -3 -17 -2 -5 7 12 8 10 10 -11 7 -14 -1 -34 -11 -44
-20 -17 -17 -18 -17 -37 0 -19 17 -20 17 -39 -7 -16 -21 -19 -22 -19 -7 0 10
-4 16 -9 12 -5 -3 -12 -1 -16 5 -3 5 -14 10 -23 10 -13 0 -14 -2 -4 -9 10 -6
10 -10 -3 -21 -12 -10 -18 -10 -30 0 -13 11 -13 15 -3 23 9 6 8 7 -5 3 -10 -3
-25 -6 -32 -6 -7 0 -12 -8 -11 -17 1 -13 -7 -17 -34 -18 -19 0 -46 -4 -59 -9
-16 -6 -21 -5 -17 3 9 13 -21 13 -49 0 -19 -9 -18 -9 3 -5 13 2 20 0 16 -6 -4
-5 -21 -7 -40 -4 -37 7 -87 -2 -79 -14 6 -10 -34 -25 -42 -16 -4 3 2 6 12 6
10 0 16 3 12 6 -8 8 -78 -16 -73 -24 2 -4 -12 -7 -32 -8 -41 0 -126 -36 -115
-48 4 -4 -1 -4 -11 0 -15 6 -17 4 -11 -6 6 -10 4 -12 -8 -7 -19 7 -109 -32
-147 -64 -14 -11 -19 -17 -11 -13 9 4 12 3 7 -4 -4 -6 -14 -8 -23 -5 -12 5
-14 3 -8 -7 5 -9 4 -11 -4 -6 -15 10 -43 -13 -34 -27 3 -6 1 -7 -6 -3 -11 7
-44 -17 -35 -27 3 -3 -3 -4 -13 -3 -11 0 -17 -5 -15 -14 2 -8 0 -12 -4 -8 -9
9 -34 -10 -34 -26 0 -6 5 -4 11 4 9 13 10 13 6 0 -2 -8 -11 -15 -19 -15 -20 0
-61 -51 -53 -65 4 -6 3 -10 -2 -9 -17 3 -33 -1 -31 -8 4 -14 -13 -53 -23 -53
-6 0 -5 -10 2 -22 12 -22 11 -22 -6 -8 -10 8 -16 10 -12 3 4 -6 0 -19 -9 -27
-11 -11 -12 -16 -3 -16 10 0 10 -3 1 -12 -7 -7 -12 -17 -12 -22 0 -6 4 -5 9 3
7 10 9 7 8 -11 -1 -17 -7 -24 -16 -20 -10 4 -11 -1 -6 -19 4 -13 8 -36 7 -52
0 -16 3 -25 10 -21 7 4 7 0 -1 -13 -7 -14 -7 -23 1 -31 9 -9 9 -12 1 -12 -8 0
-9 -9 -3 -27 5 -16 14 -46 20 -68 20 -67 83 -195 93 -188 5 3 5 8 -1 12 -24
14 -17 44 15 62 28 16 31 16 26 2 -4 -11 -2 -14 5 -9 7 4 12 13 12 20 0 7 12
18 28 25 l27 12 -25 -21 c-16 -13 8 -5 73 22 64 27 97 47 97 57 0 13 2 13 9 2
7 -11 25 -7 97 18 49 16 82 31 74 32 -8 0 7 7 35 14 27 8 51 12 54 10 2 -3
-10 -8 -28 -11 -17 -4 -34 -10 -37 -15 -2 -4 19 -1 48 8 29 9 76 21 103 28 28
7 43 13 35 14 -8 0 -32 -3 -52 -8 -21 -5 -38 -6 -38 -2 0 4 25 11 55 17 31 5
55 6 55 1 0 -11 75 -5 195 16 50 8 111 18 138 22 26 3 45 10 42 15 -8 12 19
18 105 24 l75 5 -60 -9 c-33 -6 -64 -12 -70 -15 -15 -7 87 4 184 21 46 8 86
14 88 14 2 0 2 4 -1 9 -3 5 1 12 10 15 23 9 126 7 120 -2 -3 -4 48 0 112 10
64 9 155 22 202 29 146 19 351 63 332 72 -12 5 -8 6 11 4 15 -3 27 0 27 4 0 5
15 9 33 8 28 0 29 -2 12 -10 -38 -18 25 -2 117 30 88 30 168 67 168 77 0 3 -5
2 -12 -2 -7 -4 -8 -3 -4 4 4 6 14 8 22 5 9 -3 27 6 45 23 29 28 40 52 17 38
-8 -5 -7 0 2 10 8 10 23 39 33 65 10 28 15 34 11 16 -3 -16 -12 -43 -19 -59
-11 -22 -11 -26 -1 -17 19 16 39 90 28 104 -5 7 -6 21 -1 32 l8 20 1 -20 c0
-11 10 5 20 35 11 30 19 59 17 64 -2 5 -9 -10 -16 -34 -7 -23 -14 -40 -17 -38
-2 3 2 24 10 49 14 45 27 93 65 254 12 50 26 108 32 130 6 22 24 92 40 155 29
115 29 115 12 165 -10 28 -39 82 -65 122 -56 85 -226 266 -241 256 -6 -4 -7
-1 -2 6 8 14 102 -72 186 -172 27 -32 49 -53 49 -47 0 12 -229 244 -310 313
-52 45 -79 60 -64 35 4 -7 3 -8 -5 -4 -6 4 -9 12 -5 17 3 6 -2 17 -12 24 -24
18 -38 19 -28 3 5 -7 -8 -1 -27 13 -18 15 -34 30 -34 35 0 15 -15 34 -26 34
-6 0 -7 -4 -4 -10 10 -16 -1 -11 -16 7 -12 15 -12 16 1 8 13 -8 13 -7 1 8 -16
20 -36 23 -25 5 4 -8 3 -10 -2 -5 -5 5 -9 12 -9 15 0 13 -16 32 -27 32 -6 0
-5 -7 3 -17 13 -16 12 -17 -3 -4 -10 7 -16 16 -13 20 5 8 -30 41 -44 41 -5 0
-14 7 -21 15 -7 8 -16 12 -21 9 -5 -3 -9 0 -9 7 0 12 -29 38 -44 39 -4 0 2 -9
15 -20 l24 -20 -33 11 c-21 7 -31 17 -30 28 2 12 -4 15 -24 13 -19 -2 -30 3
-38 18 -11 20 -10 21 9 10 13 -6 21 -7 21 -1 0 8 -32 24 -52 26 -3 0 -10 4
-15 9 -5 5 -2 6 6 1 10 -5 12 -4 7 4 -13 21 -62 41 -74 29 -7 -7 -19 -2 -39
18 -29 30 -72 47 -57 23 4 -8 3 -10 -4 -5 -8 4 -9 14 -4 24 14 30 8 42 -35 68
-31 18 -41 21 -37 9z m268 -361 c9 -9 16 -32 16 -54 0 -34 -4 -40 -37 -57 -47
-24 -64 -20 -87 17 -9 17 -22 30 -27 30 -6 0 -8 -4 -4 -9 3 -5 0 -16 -7 -23
-19 -21 -37 -50 -49 -80 -6 -16 -15 -28 -20 -28 -5 0 -9 -7 -9 -15 0 -9 -7
-18 -15 -21 -25 -10 -17 -29 18 -45 46 -20 49 -65 7 -108 -17 -17 -40 -31 -50
-31 -11 0 -20 -10 -25 -27 -9 -37 -23 -53 -46 -53 -25 0 -24 6 11 50 30 38 30
38 11 61 -11 13 -21 22 -23 19 -1 -3 -12 -23 -23 -45 -21 -42 -65 -63 -65 -31
0 9 4 16 8 16 4 0 19 18 32 40 14 22 28 40 33 40 4 0 7 6 7 14 0 8 16 31 35
52 19 20 35 41 35 45 0 5 4 9 9 9 5 0 12 8 16 19 3 10 13 28 23 39 9 11 25 29
34 40 9 11 14 23 11 26 -4 3 -1 6 5 6 7 0 12 8 12 18 0 9 9 23 21 30 11 7 19
18 16 25 -12 37 95 63 127 31z m74 -280 c27 -13 32 -21 32 -49 0 -36 -38 -85
-65 -85 -7 0 -28 13 -46 29 -26 25 -30 34 -25 58 9 35 34 63 56 63 9 0 31 -7
48 -16z m-705 -1238 c-4 -5 -1 -6 5 -2 8 5 11 -4 11 -26 -1 -31 16 -109 39
-185 6 -17 8 -34 5 -36 -3 -3 -2 -14 1 -25 7 -21 62 -36 72 -20 3 4 -4 8 -15
8 -23 0 -29 21 -36 138 -4 58 -2 82 6 82 7 0 9 -10 7 -24 -3 -14 0 -27 7 -30
7 -2 15 -28 19 -58 11 -84 17 -99 35 -95 9 2 15 10 13 17 -13 54 -16 82 -14
138 0 34 -3 60 -7 58 -4 -3 -5 9 -3 26 3 23 1 29 -8 23 -9 -6 -9 -3 -1 14 7
12 8 21 2 21 -5 0 -8 7 -7 15 5 32 14 24 22 -17 4 -24 8 -45 9 -48 4 -17 26
-119 30 -138 2 -13 6 -31 9 -40 2 -9 7 -29 10 -44 5 -22 12 -28 34 -28 16 0
22 3 15 8 -13 8 -23 62 -28 149 -2 28 -6 57 -10 64 -13 20 -15 92 -4 106 6 7
7 13 2 13 -5 0 -9 9 -9 20 0 25 16 27 17 3 2 -53 11 -98 22 -105 9 -6 9 -10
-2 -17 -9 -6 -10 -14 -3 -27 14 -29 25 -83 12 -64 -15 23 -12 6 5 -26 8 -16
18 -46 21 -66 4 -24 12 -38 22 -38 11 0 13 7 7 33 -4 17 -7 44 -6 60 1 15 -3
27 -9 27 -5 0 -7 7 -4 15 4 8 3 23 -1 33 -5 9 -7 26 -6 37 7 81 10 97 16 103
4 4 5 -5 3 -20 -3 -16 -2 -28 3 -28 12 0 33 -71 34 -120 1 -25 5 -53 9 -62 3
-10 9 -26 13 -35 3 -10 5 -24 4 -30 -2 -16 55 -18 64 -3 4 6 11 8 16 5 5 -4
12 1 16 10 3 10 0 21 -7 25 -7 4 -10 12 -7 17 3 4 2 38 -2 73 -6 45 -5 67 3
72 8 5 7 8 -1 8 -7 0 -13 9 -13 20 0 25 19 27 21 3 7 -92 21 -153 35 -153 12
0 12 -4 2 -21 -11 -18 -10 -23 11 -40 26 -21 65 -26 58 -6 -2 6 -11 11 -19 9
-11 -1 -15 10 -17 49 -1 35 1 49 9 44 6 -4 9 -12 7 -18 -2 -7 2 -18 10 -25 7
-7 13 -22 13 -33 0 -10 7 -19 15 -19 8 0 15 -7 15 -15 0 -20 13 -19 28 3 10
13 23 17 50 14 36 -4 37 -4 20 15 -28 31 -21 47 7 18 14 -14 31 -25 36 -25 6
0 17 -7 25 -15 17 -17 7 -20 -15 -6 -11 7 -20 3 -33 -11 -14 -17 -21 -19 -30
-10 -7 7 -18 12 -26 12 -12 0 -12 -3 -2 -15 10 -13 9 -15 -9 -15 -11 0 -21 5
-21 11 0 7 -10 4 -26 -6 -19 -12 -29 -14 -37 -6 -14 14 -37 14 -37 0 0 -5 5
-7 10 -4 6 3 10 2 10 -4 0 -5 -19 -9 -42 -9 -24 0 -54 0 -68 -2 l-25 -2 25 -8
c18 -6 5 -8 -43 -8 -41 1 -72 -4 -76 -10 -4 -7 -30 -10 -65 -9 -37 2 -65 -2
-77 -11 -12 -8 -30 -11 -44 -8 -14 4 -33 2 -42 -3 -31 -17 -107 -31 -117 -21
-5 5 -16 5 -25 1 -38 -20 -91 -28 -159 -26 -40 1 -75 -2 -78 -7 -3 -4 0 -8 7
-8 7 0 10 -3 6 -6 -3 -3 -16 1 -28 10 -21 14 -24 14 -41 -1 -17 -15 -20 -15
-34 -1 -21 21 -10 38 24 38 15 0 44 3 64 6 34 6 37 9 33 33 -18 117 -21 140
-16 135 3 -3 13 -38 21 -77 l15 -72 35 3 c19 2 45 8 57 14 24 12 37 44 19 51
-7 3 -11 18 -10 33 1 16 2 40 3 53 2 42 28 5 35 -51 4 -29 12 -58 18 -65 12
-15 68 -18 68 -3 0 6 8 10 18 10 29 0 34 11 16 37 -11 17 -12 28 -5 37 7 8 6
25 -4 53 -8 23 -13 61 -11 84 2 23 -1 54 -8 69 -6 15 -9 54 -7 86 l5 59 7 -55
c4 -30 5 -59 2 -64z"/>
<path d="M3404 4502 c-12 -8 -28 -43 -26 -54 1 -5 -5 -8 -13 -8 -8 0 -40 -34
-71 -76 -44 -60 -53 -78 -43 -85 21 -13 21 -13 64 54 39 61 62 86 78 87 5 0 5
-10 1 -22 -9 -30 -86 -148 -96 -148 -4 0 -8 -16 -8 -35 l0 -35 25 16 c14 9 25
20 25 25 0 18 85 138 98 138 6 1 12 -4 12 -9 0 -13 -81 -144 -92 -148 -4 -2
-8 -10 -8 -17 0 -7 -3 -15 -8 -17 -11 -5 -82 -106 -82 -117 0 -6 -8 -16 -18
-23 -10 -7 -31 -32 -47 -55 -15 -24 -32 -43 -37 -43 -4 0 -13 -11 -18 -25 -5
-14 -14 -25 -20 -25 -6 0 -9 -12 -8 -27 2 -22 -2 -29 -24 -37 -15 -5 -31 -7
-34 -3 -11 10 18 39 33 33 7 -3 13 1 13 9 0 17 -55 21 -65 5 -3 -5 -13 -10
-21 -10 -13 0 -14 8 -9 43 7 40 7 41 -11 26 -17 -14 -77 -40 -93 -39 -3 0 3 8
14 16 l20 16 -20 -5 c-56 -15 -65 -19 -59 -29 4 -7 2 -8 -5 -4 -13 8 -143 -32
-137 -42 2 -4 -8 -7 -23 -8 -32 -1 -127 -47 -158 -76 -13 -12 -26 -19 -29 -15
-9 9 -122 -52 -134 -72 -5 -9 -10 -13 -10 -9 0 9 -94 -54 -148 -100 -72 -61
-177 -174 -176 -188 1 -8 -2 -11 -7 -9 -4 3 -16 -7 -26 -22 -15 -25 -44 -65
-73 -99 -5 -7 -6 -15 -3 -18 4 -3 1 -6 -5 -6 -7 0 -12 -5 -12 -10 0 -6 -9 -23
-19 -38 -11 -15 -21 -36 -23 -47 -2 -11 -7 -23 -13 -27 -5 -4 -11 -13 -11 -20
-1 -7 -2 -18 -3 -24 0 -7 -8 -15 -17 -18 -12 -5 -15 -2 -10 9 3 9 2 14 -2 11
-4 -2 -7 -29 -6 -60 1 -31 -2 -56 -6 -56 -4 0 -8 -6 -7 -12 1 -33 -4 -49 -13
-43 -5 3 -10 -2 -11 -12 0 -10 -2 -35 -3 -55 -1 -20 -5 -40 -9 -44 -11 -11 -9
-26 3 -19 6 3 7 -1 4 -9 -3 -9 -9 -16 -13 -16 -3 0 -6 -20 -6 -45 0 -25 -2
-45 -5 -45 -3 0 -5 -51 -5 -113 1 -121 -1 -124 -70 -199 -26 -28 -34 -48 -12
-29 8 6 17 8 20 4 4 -3 7 1 7 10 0 10 4 17 8 17 5 0 15 11 22 25 7 14 17 25
22 25 14 0 9 -37 -7 -50 -17 -14 -20 -50 -5 -50 6 0 10 5 10 10 0 6 5 10 10
10 18 0 11 -29 -10 -40 -12 -6 -20 -21 -20 -35 0 -25 15 -34 22 -13 2 6 11 9
18 6 11 -4 -3 -23 -47 -64 -67 -64 -86 -112 -64 -164 8 -20 9 -16 5 25 -5 56
1 51 11 -9 6 -37 7 -38 21 -17 9 13 13 30 9 42 -6 17 -9 19 -16 8 -7 -12 -9
-11 -9 1 1 19 24 50 38 50 7 0 19 11 28 25 9 14 19 25 23 25 17 0 40 -70 34
-104 -5 -31 -7 -33 -25 -23 -15 10 -20 9 -28 -3 -5 -8 -10 -23 -10 -32 0 -20
-11 -23 -27 -7 -14 14 -26 -32 -17 -67 5 -18 3 -25 -4 -20 -7 4 -8 -5 -1 -31
22 -87 43 -154 50 -159 5 -2 0 19 -10 49 -10 29 -21 73 -24 98 l-6 44 13 -51
c24 -93 77 -239 98 -267 11 -16 18 -31 15 -33 -6 -7 -47 60 -57 94 -6 21 -8
23 -9 6 -1 -11 13 -41 29 -67 17 -26 30 -50 30 -53 0 -11 102 -153 118 -166
14 -11 14 -9 0 8 -10 11 -18 24 -18 28 0 5 8 -2 19 -15 10 -13 17 -29 14 -36
-7 -18 445 -467 492 -490 6 -2 -19 24 -55 58 -54 51 -56 55 -15 21 58 -46 84
-73 83 -87 0 -5 15 -21 34 -35 l33 -24 -25 27 c-13 16 -18 25 -10 22 8 -3 27
-24 42 -45 15 -22 33 -40 38 -40 6 0 8 6 4 13 -5 8 -2 8 9 -2 20 -16 23 -26 5
-15 -9 5 -9 2 1 -9 16 -20 36 -23 25 -4 -4 6 2 3 14 -7 26 -23 29 -34 5 -15
-15 11 -14 10 1 -9 20 -23 43 -31 30 -10 -4 7 -3 8 5 4 6 -4 9 -11 6 -15 -8
-14 41 -52 58 -45 10 3 17 1 17 -6 0 -6 -6 -8 -12 -4 -7 3 3 -8 22 -25 36 -32
57 -41 44 -18 -5 8 -2 8 9 -2 20 -16 23 -26 5 -15 -9 5 -9 2 1 -9 16 -20 36
-23 25 -4 -4 7 -3 9 2 4 5 -5 9 -14 9 -20 0 -7 8 -12 17 -12 10 0 23 -7 30
-15 11 -12 10 -12 -7 0 -20 15 -20 14 -1 -8 20 -23 42 -31 30 -10 -5 9 -2 9 9
-1 18 -15 23 -26 7 -16 -5 3 -10 2 -10 -3 0 -15 28 -22 34 -9 2 7 5 5 5 -5 1
-21 50 -60 68 -54 7 3 15 0 19 -6 5 -7 2 -8 -7 -4 -8 4 -1 -4 16 -18 21 -18
31 -22 37 -13 5 8 8 5 8 -8 0 -17 2 -17 10 -5 9 14 15 7 11 -14 -1 -5 5 -6 14
-2 9 3 13 2 10 -4 -7 -12 70 -52 93 -48 9 2 16 -3 15 -9 -4 -18 54 -47 60 -30
4 7 6 6 6 -4 1 -9 8 -20 17 -23 22 -9 26 -8 18 6 -4 7 -3 8 5 4 6 -4 9 -12 5
-17 -7 -12 67 -44 75 -31 3 5 15 6 26 1 l20 -8 -20 -1 c-11 0 11 -14 50 -30
69 -30 104 -39 75 -20 -12 8 -10 9 7 7 12 -2 26 -7 30 -12 5 -4 1 -5 -7 0 -10
5 -12 5 -5 -2 18 -17 216 -61 335 -74 63 -7 258 -13 433 -14 l317 -1 23 25 22
26 -27 -24 c-39 -34 -35 -21 4 15 17 16 28 23 24 17 -11 -20 9 -15 35 8 13 11
17 17 9 13 -8 -4 -4 5 9 19 14 15 27 27 29 27 3 0 -3 -9 -13 -20 -26 -29 -3
-24 25 5 13 14 20 25 15 25 -5 0 4 13 19 29 21 22 26 34 20 55 -5 23 -11 26
-48 25 l-41 -2 40 -7 c29 -5 33 -8 15 -9 -143 -13 -187 -15 -184 -9 3 5 33 9
67 9 34 1 50 4 35 6 -15 2 -112 -3 -216 -11 -152 -12 -217 -13 -338 -4 -82 6
-190 11 -241 12 -50 0 -95 4 -99 9 -4 4 -1 7 7 8 16 1 -141 46 -186 54 -27 4
-28 4 -5 -4 29 -10 6 -14 -28 -4 -16 4 -20 8 -12 13 8 5 -1 12 -24 20 -19 6
-40 9 -46 5 -6 -4 -9 -1 -8 6 2 6 -3 14 -11 17 -8 3 -11 0 -7 -7 4 -6 2 -11
-3 -11 -6 0 -11 6 -11 13 0 7 -25 25 -55 40 -66 32 -62 32 -68 9 -4 -14 -5
-14 -6 3 -1 11 -15 28 -32 37 -16 10 -27 13 -24 8 3 -5 -1 -7 -9 -4 -9 3 -14
11 -13 17 1 7 -8 12 -20 12 -12 0 -26 5 -30 9 -5 5 -2 6 6 1 10 -5 12 -4 7 4
-4 6 -20 18 -36 26 -22 11 -30 12 -33 2 -3 -7 -6 -5 -6 6 -1 15 -12 22 -33 18
-5 0 -7 5 -5 12 1 6 -6 11 -15 11 -10 -1 -16 3 -15 10 1 6 -8 11 -20 11 -12 0
-26 5 -30 9 -4 5 -2 6 5 2 31 -18 7 6 -40 40 -29 21 -59 44 -66 51 -17 17 -35
17 -26 1 4 -7 -5 -2 -19 11 -30 28 -36 41 -9 20 10 -8 5 -1 -11 14 -16 16 -35
26 -43 23 -7 -3 -16 0 -20 6 -5 7 -2 8 7 3 11 -7 11 -5 -1 9 -9 12 -16 14 -18
6 -3 -7 -9 -2 -16 12 -6 12 -20 24 -30 26 -13 3 -16 0 -10 -10 6 -10 4 -10 -9
1 -10 8 -15 16 -12 19 6 7 -25 42 -37 42 -5 0 -6 -6 -2 -12 4 -7 -2 -4 -14 6
-26 23 -29 34 -4 15 9 -7 6 -1 -7 14 -25 28 -48 37 -35 15 4 -7 -23 16 -60 52
-36 35 -66 67 -66 69 0 3 28 -21 63 -54 l62 -60 -60 63 c-33 34 -65 60 -72 58
-6 -3 -17 3 -25 12 -12 15 -11 16 7 3 11 -7 -3 7 -32 33 -28 26 -117 121 -198
211 -81 91 -149 165 -152 165 -4 0 2 -10 13 -22 l19 -23 -22 19 c-13 11 -23
27 -23 36 0 19 -74 122 -82 115 -7 -8 -40 44 -34 53 3 4 0 14 -6 22 -8 12 -9
12 -4 -2 4 -15 3 -16 -14 -6 -10 7 -16 16 -14 20 3 4 1 8 -5 8 -6 0 -8 6 -5
14 3 7 -2 21 -11 30 -12 11 -15 25 -11 44 4 15 3 22 -2 15 -6 -10 -12 -8 -22
5 -8 10 -16 23 -16 28 -1 5 -5 20 -9 34 -5 20 -4 22 5 10 10 -13 11 -13 7 0
-2 8 -8 15 -13 15 -19 0 -35 18 -30 32 3 8 -1 27 -9 43 -8 16 -15 37 -14 47 0
10 11 -9 24 -42 13 -33 24 -55 24 -50 2 23 -38 110 -50 110 -13 0 -31 50 -21
59 3 3 0 6 -7 6 -8 0 -11 7 -7 15 3 8 2 15 -2 15 -4 0 -8 19 -9 43 -1 23 -7
56 -13 72 -7 17 -14 114 -17 223 l-5 193 37 76 c32 64 60 98 173 212 75 75
127 129 116 121 -19 -14 -19 -14 0 8 20 23 32 30 21 12 -3 -5 -2 -10 3 -10 13
0 52 45 52 61 0 12 2 12 9 0 7 -11 13 -10 35 4 26 17 38 33 14 19 -9 -5 -9 -2
1 9 15 19 26 23 15 6 -4 -7 -1 -10 7 -7 8 3 12 12 11 19 -2 8 0 11 4 7 4 -4
14 -2 22 5 13 9 14 9 8 0 -9 -17 -10 -17 60 10 32 13 119 36 191 52 73 16 128
32 122 36 -15 9 7 15 61 17 37 1 40 -1 20 -8 -41 -14 1 -11 67 5 79 19 247 34
393 37 l115 2 -130 6 c-106 5 -86 6 105 6 135 0 205 -2 165 -6 l-70 -6 70 -3
c39 -1 88 -4 110 -6 22 -2 69 -6 105 -9 36 -3 83 -12 104 -21 32 -14 40 -14
47 -3 7 10 9 8 9 -6 0 -13 5 -17 20 -13 11 3 18 0 17 -6 -1 -7 54 -31 123 -54
174 -60 220 -54 274 38 10 18 14 29 7 25 -6 -4 -11 -5 -11 -2 0 13 52 166 56
166 3 0 2 -10 -2 -22 -14 -46 -14 -52 0 -23 8 17 12 44 9 60 -3 18 -1 25 4 18
5 -8 16 16 29 67 11 43 17 77 12 74 -4 -3 -3 8 2 23 16 52 20 58 15 24 -6 -42
4 -35 15 11 22 87 22 85 5 53 -17 -34 -15 -23 9 53 10 28 20 52 22 52 3 0 2
-10 -2 -22 -15 -48 -15 -52 -4 -34 15 23 23 139 10 131 -6 -3 -10 -2 -10 4 0
6 -7 8 -15 5 -9 -4 -15 0 -15 10 0 10 -5 13 -17 9 -11 -4 -14 -3 -9 5 5 8 2
10 -8 6 -9 -3 -16 -1 -16 6 0 6 -4 9 -8 6 -14 -9 -92 16 -85 27 3 6 1 7 -5 3
-17 -10 -87 13 -172 58 -41 22 -93 48 -115 59 -55 26 -107 66 -100 77 3 5 -6
7 -20 4 -17 -3 -25 0 -25 10 0 10 6 13 15 10 23 -9 18 2 -9 19 -23 15 -24 15
-18 -6 5 -21 5 -21 -19 -6 -13 9 -26 25 -27 35 -2 11 -9 24 -14 29 -7 7 -8 3
-3 -12 8 -30 -4 -29 -33 2 -13 13 -27 24 -30 23 -14 -4 -52 23 -46 33 3 6 -3
13 -15 16 -12 3 -21 10 -21 15 0 5 -5 6 -10 3 -6 -3 -13 1 -16 9 -3 9 -12 16
-20 16 -8 0 -14 4 -14 10 0 5 7 7 15 4 23 -9 18 4 -6 17 -13 7 -19 7 -15 1 3
-6 2 -13 -3 -16 -5 -4 -12 -2 -16 4 -4 6 -11 8 -16 5 -5 -4 -9 -2 -9 4 0 5 5
13 10 16 16 10 12 22 -17 41 -20 13 -25 13 -16 2 7 -8 9 -19 5 -23 -4 -5 -2
-5 5 -1 6 3 14 2 17 -3 9 -14 -18 -7 -36 9 -8 8 -13 22 -11 31 3 9 -1 20 -7
24 -9 5 -10 1 -5 -14 8 -27 -13 -28 -23 -1 -4 10 -12 16 -18 12z m170 -266 c3
-11 6 -42 6 -67 l0 -45 -55 -2 c-40 -1 -55 2 -55 12 0 7 -7 19 -15 26 -18 15
-19 53 -3 80 10 16 23 20 65 19 43 -1 52 -5 57 -23z m-153 -68 c-6 -18 -24
-49 -41 -68 -16 -19 -30 -39 -30 -43 0 -4 -12 -19 -26 -32 l-26 -24 33 -8 c41
-11 53 -31 45 -74 -4 -24 -15 -40 -35 -52 -39 -23 -56 -21 -75 8 -19 29 -42
32 -50 7 -10 -30 -49 -62 -65 -53 -11 7 -7 16 18 42 17 19 45 55 62 82 17 26
35 47 39 47 5 0 18 16 30 35 12 20 27 41 34 48 7 6 21 27 31 45 11 17 23 32
27 32 4 0 8 7 8 16 0 8 5 12 10 9 6 -3 10 4 11 17 0 13 3 17 6 11 2 -7 0 -27
-6 -45z"/>
</g>
</svg>
